<?xml version="1.0" standalone="no"?>
<!DOCTYPE svg PUBLIC "-//W3C//DTD SVG 20010904//EN"
 "http://www.w3.org/TR/2001/REC-SVG-20010904/DTD/svg10.dtd">
<svg version="1.0" xmlns="http://www.w3.org/2000/svg"
 width="832.000000pt" height="511.000000pt" viewBox="0 0 832.000000 511.000000"
 preserveAspectRatio="xMidYMid meet">

<g transform="translate(0.000000,511.000000) scale(0.100000,-0.100000)"
fill="#000000" stroke="none">
<path d="M3733 4690 c-74 -11 -140 -46 -199 -106 -113 -115 -159 -301 -119
-487 23 -110 57 -171 142 -258 99 -102 156 -131 267 -137 108 -5 150 6 154 41
3 23 8 27 38 27 32 0 34 -2 28 -25 l-6 -25 261 0 261 0 0 99 c0 96 -1 100 -22
103 -17 2 -24 11 -26 31 -3 24 -8 27 -38 27 -19 0 -34 2 -34 5 0 3 23 45 51
94 70 124 99 209 99 297 0 105 -19 151 -99 227 -77 74 -108 87 -222 87 -124 0
-209 -57 -239 -160 -5 -18 -12 -73 -16 -121 l-7 -87 29 -4 c21 -2 30 -10 34
-28 6 -24 9 -25 93 -28 48 -1 87 -5 87 -8 0 -3 -60 -108 -132 -232 l-133 -227
-3 79 c-3 77 -3 78 -27 72 -21 -5 -24 -2 -27 26 -2 27 -7 32 -23 30 -122 -18
-163 -10 -185 36 -19 40 -25 174 -10 227 7 24 28 62 47 84 41 48 88 64 153 51
25 -5 51 -9 58 -10 9 0 12 29 12 115 0 114 0 115 -25 121 -16 4 -25 13 -25 25
0 34 -100 53 -197 39z m135 -36 c20 -6 22 -12 22 -88 l0 -81 -45 3 c-101 8
-156 -22 -203 -112 -23 -45 -26 -62 -27 -151 0 -81 4 -109 21 -145 42 -91 127
-140 216 -125 l38 7 0 -81 c0 -95 -1 -96 -95 -95 -87 0 -156 27 -220 85 -100
93 -141 210 -133 389 8 161 60 269 165 341 71 50 186 73 261 53z m499 -9 c70
-21 117 -74 133 -150 22 -106 -13 -213 -138 -423 -34 -57 -62 -107 -62 -112 0
-14 30 -20 106 -20 l74 0 0 -65 c0 -44 -4 -67 -13 -71 -7 -2 -108 -3 -224 -2
l-212 3 141 240 c157 267 178 312 178 386 0 77 -53 120 -110 89 -22 -12 -40
-68 -40 -127 l0 -43 -76 0 -77 0 5 78 c3 47 13 95 25 123 41 91 164 131 290
94z m-53 -247 c-3 -18 -10 -42 -15 -53 -6 -17 -8 -15 -8 10 -1 40 9 75 21 75
6 0 7 -13 2 -32z"/>
<path d="M3067 4663 c-4 -3 -7 -154 -7 -334 l0 -329 -26 -17 c-25 -16 -28 -16
-69 6 -24 13 -48 20 -54 16 -7 -4 -11 -47 -11 -110 l0 -104 30 -16 c17 -9 30
-22 30 -29 0 -8 17 -21 38 -29 137 -54 259 -9 318 118 24 49 24 54 24 412 l0
362 -22 3 c-17 2 -24 11 -26 31 l-3 27 -108 0 c-59 0 -111 -3 -114 -7z m191
-370 l-3 -348 -28 -52 c-16 -32 -43 -63 -66 -79 -50 -33 -132 -42 -184 -21
l-37 16 0 76 c0 72 1 75 19 65 33 -17 78 -11 108 14 l28 24 3 326 3 326 80 0
80 0 -3 -347z"/>
<path d="M4680 4220 l0 -450 25 0 c20 0 25 -5 25 -26 l0 -26 193 4 c192 3 192
3 247 33 146 80 184 266 77 382 l-40 44 26 27 c59 61 74 168 36 252 -22 50
-108 143 -154 167 -61 33 -129 43 -282 43 l-153 0 0 -450z m303 410 c143 -21
217 -94 217 -215 0 -68 -16 -101 -72 -150 -40 -35 -42 -38 -24 -49 48 -28 96
-81 106 -114 24 -88 5 -161 -59 -223 -64 -62 -110 -74 -291 -74 l-145 0 -3
418 -2 417 102 0 c57 0 134 -5 171 -10z"/>
<path d="M4874 4497 c-2 -7 -3 -58 -2 -113 3 -111 5 -114 78 -94 62 17 90 49
90 103 0 58 -26 91 -84 106 -58 14 -75 14 -82 -2z m131 -88 c11 -17 -4 -58
-25 -69 -19 -10 -20 -8 -20 35 0 38 3 45 19 45 11 0 23 -5 26 -11z"/>
<path d="M4875 4148 c-3 -8 -4 -57 -3 -109 l3 -94 57 0 c65 0 107 24 122 68
14 38 -4 96 -36 120 -35 26 -135 36 -143 15z m145 -107 c0 -20 -8 -35 -22 -45
-33 -24 -38 -20 -38 29 0 43 1 45 30 45 27 0 30 -3 30 -29z"/>
<path d="M3629 3595 c-47 -26 -66 -126 -30 -157 11 -9 31 -18 44 -20 l25 -3
-49 -83 c-27 -45 -49 -86 -49 -91 0 -4 8 -16 19 -25 15 -14 36 -16 122 -14
l104 3 3 44 c3 33 -2 49 -17 65 -21 22 -21 22 -2 60 l20 38 6 -39 c19 -114 70
-174 149 -175 83 -2 128 59 130 176 1 45 5 66 14 66 6 0 12 -4 12 -9 0 -6 14
-11 30 -13 l30 -3 -51 -88 -51 -88 21 -20 c18 -17 33 -19 123 -17 l103 3 3 46
c2 34 -2 49 -16 63 -19 17 -19 18 1 59 46 96 43 139 -13 198 -33 35 -42 39
-87 39 -60 0 -96 -24 -113 -75 l-12 -36 -28 40 c-40 54 -67 71 -118 71 -37 0
-50 -6 -78 -34 -19 -19 -34 -41 -34 -50 0 -9 -4 -16 -10 -16 -5 0 -10 7 -10
15 0 8 -13 29 -28 46 -24 27 -37 33 -83 36 -35 2 -63 -2 -80 -12z m106 -25
c57 -22 54 -92 -11 -203 -19 -32 -32 -63 -29 -68 4 -5 19 -9 36 -9 19 0 29 -5
29 -15 0 -12 -15 -15 -71 -15 l-71 0 32 53 c17 28 45 81 62 116 29 59 30 66
17 90 -21 36 -51 33 -68 -6 -18 -40 -41 -43 -41 -5 0 58 52 86 115 62z m264
-6 c34 -24 51 -74 51 -148 0 -72 -22 -141 -51 -156 -25 -14 -71 -12 -91 4 -43
32 -62 152 -38 238 19 66 80 96 129 62z m284 -15 c26 -33 21 -71 -23 -156 -22
-42 -38 -83 -36 -90 3 -7 19 -13 36 -13 20 0 30 -5 30 -15 0 -12 -15 -15 -75
-15 l-75 0 51 86 c60 101 73 136 65 169 -12 48 -76 39 -76 -11 0 -17 -6 -24
-20 -24 -29 0 -26 45 6 77 21 21 32 24 62 19 20 -3 45 -15 55 -27z"/>
<path d="M3919 3524 c-19 -23 -24 -171 -7 -204 18 -34 61 -39 82 -8 20 28 22
161 3 198 -15 31 -58 38 -78 14z m60 -114 c0 -25 -4 -54 -8 -65 -8 -19 -8 -19
-16 4 -10 32 4 139 16 120 5 -8 8 -34 8 -59z"/>
<path d="M4405 3588 c-2 -7 -9 -52 -15 -100 -14 -101 -6 -118 54 -118 29 0 36
-4 36 -19 0 -30 -22 -42 -60 -31 -41 12 -47 6 -51 -42 -3 -29 2 -41 20 -57 34
-30 126 -32 168 -5 27 17 53 74 53 116 0 39 -33 101 -67 127 l-28 20 32 1 c52
0 63 9 63 50 0 57 -21 70 -119 70 -56 0 -83 -4 -86 -12z m145 -33 c0 -11 -11
-15 -40 -15 -34 0 -42 -4 -50 -26 -17 -44 -12 -61 20 -67 48 -10 70 -40 70
-96 0 -39 -5 -53 -26 -75 -26 -26 -71 -34 -108 -20 -29 11 -17 24 22 24 59 0
85 40 69 102 -5 21 -17 30 -47 39 l-41 12 7 61 c4 34 9 64 11 69 2 4 29 7 59
7 41 0 54 -4 54 -15z"/>
<path d="M2941 3174 c-25 -18 -51 -71 -51 -103 0 -12 11 -24 30 -33 26 -11 30
-18 30 -51 0 -26 5 -40 18 -45 12 -5 3 -9 -28 -12 -43 -5 -45 -7 -48 -38 -3
-28 3 -40 38 -73 25 -24 52 -40 68 -41 86 -4 115 12 134 73 9 32 8 46 -6 83
-13 34 -15 50 -7 65 27 50 0 140 -53 172 -38 23 -94 24 -125 3z m92 -25 c47
-21 60 -80 27 -122 -11 -14 -20 -29 -20 -35 0 -5 9 -17 20 -27 13 -12 20 -31
20 -57 0 -76 -82 -107 -138 -51 -24 24 -25 28 -9 31 10 2 26 -3 36 -12 28 -26
58 -20 69 13 14 39 4 71 -24 82 -29 10 -31 35 -4 42 11 3 25 17 32 32 10 22 9
32 -3 53 -18 33 -51 35 -64 5 -10 -23 -45 -32 -45 -12 0 21 22 50 43 59 30 12
32 12 60 -1z m-23 -239 c0 -5 -2 -10 -4 -10 -3 0 -8 5 -11 10 -3 6 -1 10 4 10
6 0 11 -4 11 -10z"/>
<path d="M3659 3163 c-43 -37 -59 -80 -59 -160 0 -95 15 -138 62 -184 38 -36
45 -39 98 -39 101 0 140 53 140 192 0 99 -24 158 -80 196 -48 33 -118 31 -161
-5z m130 -18 c58 -29 80 -166 42 -252 -21 -45 -45 -63 -85 -63 -66 0 -103 45
-112 137 -8 76 8 135 47 167 35 29 67 33 108 11z"/>
<path d="M3705 3095 c-22 -21 -25 -33 -25 -94 0 -102 26 -143 78 -126 29 8 42
49 42 126 0 61 -3 73 -25 94 -13 14 -29 25 -35 25 -6 0 -22 -11 -35 -25z m65
-100 c0 -49 -9 -85 -21 -85 -10 0 -12 133 -2 143 12 12 23 -16 23 -58z"/>
<path d="M2650 3132 c0 -36 5 -51 20 -62 18 -13 20 -26 20 -135 0 -141 8 -155
85 -155 l45 0 0 186 c0 147 -3 188 -14 200 -10 9 -37 14 -85 14 l-71 0 0 -48z
m110 -137 c0 -130 -2 -155 -15 -155 -12 0 -15 24 -17 133 -3 128 -4 132 -25
135 -15 2 -23 10 -23 23 0 16 7 19 40 19 l40 0 0 -155z"/>
<path d="M3280 2997 c0 -171 1 -184 20 -200 13 -10 37 -17 65 -17 l44 0 3 58
3 57 24 -45 c31 -59 47 -69 104 -70 l47 0 0 186 c0 214 0 214 -79 214 l-51 0
0 -57 -1 -58 -21 40 c-34 67 -45 75 -105 75 l-53 0 0 -183z m135 53 c66 -133
81 -133 77 3 l-4 97 26 0 26 0 0 -155 0 -155 -27 0 c-25 0 -33 10 -78 98 -27
53 -54 96 -60 95 -6 -2 -11 -45 -13 -98 -2 -87 -4 -95 -22 -95 -19 0 -20 8
-20 155 0 155 0 155 23 155 19 0 31 -17 72 -100z"/>
<path d="M3877 3173 c-7 -13 104 -356 121 -376 12 -13 28 -17 61 -15 44 3 44
3 62 58 10 30 23 78 30 105 7 28 16 57 20 65 5 8 13 31 18 50 7 26 9 0 10
-106 1 -175 0 -174 124 -174 72 0 86 3 89 17 3 15 4 15 20 -1 13 -12 30 -16
60 -14 39 3 44 6 49 33 4 17 7 25 8 18 2 -24 45 -53 78 -53 27 0 34 4 39 28 9
42 12 49 13 26 1 -34 33 -54 84 -54 46 0 47 0 47 33 0 17 -5 59 -10 92 -5 33
-14 102 -19 153 -6 57 -15 98 -25 107 -10 10 -35 15 -74 15 -57 0 -61 -2 -70
-27 -6 -16 -11 -22 -11 -15 -2 29 -30 42 -90 42 l-60 0 -6 -42 c-3 -24 -11
-92 -18 -152 -11 -100 -13 -108 -28 -94 -9 9 -27 18 -40 21 -19 3 -18 5 9 6
32 1 32 2 32 49 0 49 -13 71 -50 85 -8 3 2 6 23 6 l37 1 0 46 c0 66 -12 74
-119 74 -66 0 -91 -3 -91 -12 0 -10 -2 -10 -9 0 -5 9 -25 12 -62 10 l-54 -3
-15 -57 c-13 -54 -30 -78 -30 -43 0 8 -9 35 -21 60 l-21 45 -54 0 c-29 0 -55
-3 -57 -7z m88 -42 c3 -10 16 -61 29 -112 33 -131 46 -129 82 16 26 107 30
115 52 115 16 0 22 -5 19 -13 -3 -7 -24 -77 -47 -155 -39 -129 -45 -142 -66
-142 -21 0 -27 12 -59 118 -20 64 -40 130 -46 146 -13 41 -12 46 10 46 11 0
22 -9 26 -19z m395 -1 c0 -17 -7 -20 -40 -20 l-40 0 0 -50 0 -50 35 0 c46 0
49 -27 3 -32 -32 -3 -33 -5 -36 -50 l-3 -47 38 -3 c27 -2 39 -8 41 -20 3 -16
-5 -18 -57 -18 l-61 0 0 155 0 155 60 0 c53 0 60 -2 60 -20z m205 -75 c14 -76
21 -95 33 -93 11 2 20 25 29 73 21 119 19 115 58 115 21 0 35 -5 35 -12 0 -7
7 -69 15 -138 19 -160 19 -160 -4 -160 -17 0 -20 11 -26 98 -7 106 -19 152
-37 134 -5 -5 -21 -58 -33 -117 -13 -59 -26 -109 -29 -113 -13 -12 -23 16 -45
118 -12 57 -26 109 -30 113 -20 20 -29 -9 -36 -118 -7 -103 -9 -115 -26 -115
-23 0 -23 1 -4 160 8 69 15 131 15 138 0 7 14 12 34 12 l34 0 17 -95z"/>
<path d="M4820 2997 c0 -220 -1 -217 104 -217 81 0 139 25 154 67 l10 28 1
-30 c1 -42 31 -65 86 -65 44 0 45 1 45 33 1 29 2 30 12 12 6 -11 19 -25 27
-32 21 -16 108 -17 114 0 4 9 7 9 15 -1 6 -9 34 -12 98 -10 l89 3 3 44 c4 50
-15 78 -57 84 -23 4 -22 4 7 6 31 1 32 2 32 49 0 49 -13 71 -50 85 -8 3 4 6
28 6 l42 1 0 43 c0 68 -18 78 -126 75 l-89 -3 -5 -53 -5 -53 -19 36 c-31 57
-70 75 -165 75 l-81 0 0 -127 c-1 -119 -2 -126 -16 -100 -11 20 -12 32 -4 46
27 51 -4 137 -60 166 -19 10 -58 15 -110 15 l-80 0 0 -183z m156 143 c57 -22
69 -70 29 -118 l-25 -30 25 -19 c37 -27 37 -78 1 -110 -22 -18 -39 -23 -87
-23 l-59 0 0 155 0 155 44 0 c25 0 57 -5 72 -10z m277 -2 c52 -27 63 -88 23
-134 l-23 -28 28 -68 28 -68 -23 0 c-19 0 -28 12 -53 78 l-31 77 24 13 c46 25
39 95 -11 108 -38 9 -46 -3 -45 -65 1 -31 1 -91 1 -133 -1 -71 -3 -78 -21 -78
-19 0 -20 7 -20 155 l0 155 51 0 c28 0 60 -5 72 -12z m267 -8 c0 -17 -7 -20
-41 -20 l-40 0 3 -47 c3 -46 4 -48 36 -51 19 -2 32 -9 32 -17 0 -8 -13 -15
-32 -17 -32 -3 -33 -5 -36 -50 l-3 -48 40 0 c34 0 41 -3 41 -20 0 -18 -7 -20
-60 -20 l-60 0 0 155 0 155 60 0 c53 0 60 -2 60 -20z m-162 -242 l-3 -43 -19
48 c-19 47 -19 48 0 83 l19 35 3 -40 c2 -23 2 -60 0 -83z"/>
<path d="M4900 3065 c0 -54 0 -55 29 -55 30 0 61 30 61 57 0 22 -39 53 -65 53
-24 0 -25 -3 -25 -55z"/>
<path d="M4900 2925 c0 -52 1 -55 26 -55 44 0 64 17 64 55 0 38 -20 55 -64 55
-25 0 -26 -3 -26 -55z"/>
<path d="M2197 2736 c-87 -32 -122 -101 -122 -238 1 -75 5 -93 30 -143 48 -93
138 -143 222 -125 83 19 124 77 131 186 4 68 3 76 -20 98 -13 14 -38 26 -58
28 l-35 3 48 22 c26 12 47 28 47 35 0 23 -58 95 -93 117 -45 27 -104 34 -150
17z m140 -59 l36 -33 -32 -14 c-27 -11 -34 -10 -50 4 -24 22 -64 20 -87 -5
-15 -17 -20 -39 -22 -113 -3 -101 7 -131 50 -155 25 -14 29 -14 55 5 37 27 46
94 14 94 -16 0 -21 6 -21 25 0 24 3 25 55 25 l55 0 0 -52 c0 -128 -93 -201
-196 -152 -58 28 -79 80 -79 199 0 77 4 107 18 133 24 44 72 72 125 72 34 0
49 -6 79 -33z m-29 -109 c20 -20 14 -28 -23 -28 -38 0 -38 0 -29 24 7 19 35
21 52 4z m-33 -158 c0 -7 -6 -15 -12 -17 -8 -3 -13 4 -13 17 0 13 5 20 13 18
6 -3 12 -11 12 -18z"/>
<path d="M3216 2740 c-81 -25 -119 -123 -80 -206 9 -19 39 -55 66 -79 32 -29
48 -50 44 -60 -7 -19 -18 -19 -62 0 -20 8 -40 12 -45 9 -5 -3 -9 5 -9 17 0 11
-10 32 -22 45 -21 21 -32 24 -105 24 -69 0 -83 3 -83 16 0 9 -9 18 -20 21 -11
3 -20 12 -20 19 0 8 -10 14 -25 14 -14 0 -25 5 -25 10 0 6 23 10 50 10 l50 0
0 51 c0 39 -5 57 -22 75 -22 22 -30 24 -135 24 l-113 0 0 -226 c0 -217 1 -226
20 -231 11 -3 20 -12 20 -19 0 -11 16 -14 65 -14 l65 0 0 85 0 85 40 0 c29 0
40 -4 40 -15 0 -8 7 -15 15 -15 8 0 19 -9 26 -21 10 -19 18 -21 100 -17 l89 3
0 -30 c0 -39 38 -74 90 -86 102 -23 188 41 191 141 1 45 1 45 8 10 10 -49 24
-71 69 -112 64 -58 181 -60 237 -4 36 36 45 88 45 260 0 157 0 159 -26 182
-20 20 -36 24 -85 24 l-59 0 0 -170 c0 -107 -4 -170 -10 -170 -6 0 -10 58 -10
155 0 131 -2 155 -15 155 -8 0 -15 7 -15 15 0 13 -12 15 -67 13 l-68 -3 -5
-155 c-3 -85 -7 -149 -8 -142 -1 8 -29 42 -62 76 -69 72 -76 91 -27 82 73 -15
72 -16 75 41 3 44 0 54 -17 65 -12 7 -21 18 -21 24 0 6 -20 17 -44 23 -51 13
-60 13 -100 1z m98 -36 c9 -3 16 -17 16 -31 0 -22 -3 -23 -34 -18 -48 9 -76
-8 -76 -47 0 -26 11 -43 65 -93 62 -58 65 -62 65 -107 0 -81 -62 -129 -146
-114 -29 6 -34 11 -34 35 0 28 1 28 43 24 32 -4 48 -1 60 12 30 29 20 55 -46
120 -86 84 -97 148 -35 200 29 25 85 33 122 19z m-454 -34 c0 -29 -1 -30 -50
-30 l-50 0 0 -55 0 -55 45 0 c43 0 45 -1 45 -30 0 -29 -2 -30 -45 -30 l-45 0
0 -85 0 -85 -30 0 -30 0 0 200 0 200 80 0 80 0 0 -30z m660 -117 c0 -168 8
-196 55 -201 17 -2 39 4 50 12 18 13 20 28 23 175 l3 161 30 0 29 0 0 -157 c0
-211 -21 -253 -125 -253 -104 0 -125 42 -125 253 l0 157 30 0 30 0 0 -147z
m-460 -118 c0 -24 -3 -25 -55 -25 -52 0 -55 1 -55 25 0 24 3 25 55 25 52 0 55
-1 55 -25z"/>
<path d="M2470 2500 c0 -198 2 -230 15 -230 8 0 15 -7 15 -15 0 -12 14 -15 65
-15 l65 0 0 230 c0 198 -2 230 -15 230 -8 0 -15 7 -15 15 0 12 -14 15 -65 15
l-65 0 0 -230z m90 0 l0 -200 -30 0 -30 0 0 200 0 200 30 0 30 0 0 -200z"/>
<path d="M3800 2500 c0 -190 2 -230 14 -230 8 0 17 -7 20 -15 4 -13 19 -15 68
-13 57 3 63 5 69 28 4 14 7 19 8 13 1 -7 7 -13 15 -13 8 0 16 -7 20 -15 4 -11
22 -15 71 -15 36 0 65 3 65 7 0 4 -17 49 -37 100 l-36 93 22 24 c24 26 37 89
27 131 -8 32 -70 101 -107 121 -19 9 -60 14 -124 14 l-95 0 0 -230z m200 185
c42 -21 60 -53 60 -103 0 -36 -6 -49 -30 -72 l-29 -28 34 -86 c19 -47 35 -88
35 -91 0 -4 -14 -5 -31 -3 -30 3 -34 9 -69 98 -53 133 -70 133 -70 1 l0 -101
-30 0 -30 0 0 200 0 200 65 0 c39 0 78 -6 95 -15z"/>
<path d="M3902 2583 l3 -68 29 2 c89 6 85 133 -4 133 l-31 0 3 -67z"/>
<path d="M4310 2720 c0 -5 25 -62 55 -126 l55 -117 0 -103 c0 -87 3 -104 15
-104 9 0 18 -7 21 -15 5 -11 22 -15 70 -15 l64 0 1 108 c0 106 0 108 43 191
l43 84 26 -84 c14 -46 38 -126 54 -176 15 -51 33 -93 39 -93 7 0 14 -7 18 -15
4 -11 21 -15 66 -15 33 0 60 1 60 3 0 10 111 371 115 375 3 3 5 -74 5 -171 0
-151 2 -177 15 -177 8 0 15 -7 15 -15 0 -12 19 -15 115 -15 l115 0 0 60 c0 47
-3 60 -15 60 -8 0 -15 7 -15 15 0 10 -10 15 -29 15 -17 0 -33 5 -36 10 -4 6
12 10 39 10 l46 0 0 53 c0 42 -5 56 -24 75 -13 12 -33 22 -45 22 -12 0 -21 5
-21 10 0 6 23 10 50 10 28 0 50 5 50 10 0 6 5 10 10 10 6 0 10 -7 10 -15 0 -8
7 -15 15 -15 13 0 15 -23 15 -150 0 -122 3 -150 14 -150 8 0 16 -7 20 -15 4
-11 21 -15 65 -15 l61 0 2 163 3 162 35 5 c61 10 60 11 60 -147 0 -136 1 -145
20 -150 11 -3 20 -12 20 -19 0 -11 16 -14 65 -14 l65 0 0 165 0 165 30 0 30 0
0 -150 c0 -128 2 -150 15 -150 9 0 18 -7 21 -15 5 -12 28 -15 120 -15 l114 0
0 51 c0 43 -5 56 -26 75 -14 13 -36 24 -50 24 -13 0 -24 5 -24 10 0 6 18 10
40 10 l40 0 0 55 c0 40 -4 57 -15 61 -8 4 -15 12 -15 20 0 8 -10 14 -25 14
-45 0 -26 19 23 22 l47 3 3 48 c3 42 -1 52 -23 73 -24 22 -34 24 -136 24 -90
0 -109 -3 -109 -15 0 -8 -5 -15 -10 -15 -6 0 -13 7 -16 15 -5 13 -45 15 -269
15 -243 0 -264 -1 -268 -17 -4 -17 -5 -17 -6 0 -1 15 -14 17 -116 17 -96 0
-115 -3 -115 -15 0 -8 -7 -15 -15 -15 -9 0 -12 6 -9 15 5 12 -6 15 -65 15
l-70 0 -10 -37 c-6 -21 -16 -60 -22 -88 l-13 -50 -19 65 c-31 105 -39 110
-185 110 l-123 0 -15 -37 c-14 -33 -17 -35 -26 -19 -26 46 -46 56 -113 56 -36
0 -65 -4 -65 -10z m138 -92 c33 -91 51 -91 81 2 22 69 23 70 57 70 19 0 34 -2
34 -5 0 -3 -22 -50 -50 -105 -50 -99 -50 -101 -50 -195 l0 -95 -30 0 -30 0 0
90 c0 88 -1 92 -50 190 -27 55 -50 105 -50 110 0 7 14 10 32 8 29 -3 33 -8 56
-70z m331 -15 c13 -49 29 -113 36 -143 19 -90 38 -79 65 37 42 181 47 193 80
193 17 0 30 -3 30 -7 0 -5 -26 -95 -57 -200 l-57 -193 -32 0 -31 0 -52 170
c-79 258 -75 230 -38 230 32 0 32 -1 56 -87z m471 58 c0 -28 -2 -30 -47 -33
l-48 -3 0 -50 0 -50 43 -3 c39 -3 42 -5 42 -32 0 -27 -3 -29 -42 -32 l-43 -3
0 -50 0 -50 48 -3 c45 -3 47 -5 47 -33 l0 -29 -80 0 -80 0 0 200 0 200 80 0
80 0 0 -29z m280 0 c0 -25 -4 -30 -27 -33 l-28 -3 -3 -167 -2 -168 -35 0 -35
0 -2 168 -3 167 -27 3 c-24 3 -28 8 -28 33 l0 29 95 0 95 0 0 -29z m270 0 c0
-26 -4 -30 -32 -33 l-33 -3 -3 -167 -2 -168 -30 0 -30 0 -2 168 -3 167 -32 3
c-29 3 -33 7 -33 33 l0 29 100 0 100 0 0 -29z m260 -1 c0 -29 -1 -30 -50 -30
l-50 0 0 -55 0 -55 46 0 c44 0 45 -1 42 -27 -3 -25 -7 -28 -45 -31 l-43 -3 0
-55 0 -54 50 0 c49 0 50 -1 50 -30 l0 -30 -80 0 -80 0 0 200 0 200 80 0 80 0
0 -30z"/>
<path d="M4130 2441 c0 -39 5 -56 24 -76 23 -24 29 -26 103 -23 l78 3 3 48 c3
39 -1 53 -20 72 -21 22 -31 25 -105 25 l-83 0 0 -49z m140 -6 c0 -24 -3 -25
-55 -25 -47 0 -55 3 -55 18 0 28 9 32 62 32 45 0 48 -2 48 -25z"/>
</g>
</svg>
